<svg xmlns="http://www.w3.org/2000/svg" width="520" height="520" viewBox="0 0 520 520"><rect x="55" y="45" width="410" height="430" rx="66" fill="none" stroke="#DCC4A7" stroke-width="4"/><rect x="75" y="65" width="100" height="92" rx="22" fill="#7B927D"/><rect x="185" y="65" width="100" height="92" rx="22" fill="#DCC4A7"/><rect x="295" y="65" width="100" height="92" rx="22" fill="#7B927D"/><rect x="75" y="175" width="100" height="92" rx="22" fill="#DCC4A7"/><rect x="185" y="175" width="100" height="92" rx="22" fill="#7B927D"/><rect x="295" y="175" width="165" height="92" rx="22" fill="#7B927D"/><rect x="75" y="285" width="100" height="92" rx="22" fill="#DCC4A7"/><rect x="185" y="285" width="100" height="54" rx="22" fill="#7B927D"/><rect x="295" y="285" width="90" height="54" rx="22" fill="#7B927D"/><rect x="395" y="285" width="70" height="92" rx="22" fill="#D97C5F"/><rect x="75" y="395" width="100" height="92" rx="22" fill="#7B927D"/><rect x="185" y="350" width="100" height="137" rx="22" fill="#7B927D"/><rect x="295" y="350" width="90" height="137" rx="22" fill="#D97C5F"/><rect x="395" y="395" width="70" height="92" rx="22" fill="#D97C5F"/><path d="M 400,105 L 435,105 L 435,135 L 435,190 L 330,190 L 330,225 L 270,225 L 270,300 L 215,300 L 215,345 L 150,345 L 150,405" fill="none" stroke="#FBF4EC" stroke-width="10" stroke-linecap="round" stroke-linejoin="round"/><circle cx="435" cy="105" r="13" fill="#FBF4EC"/><circle cx="435" cy="105" r="6" fill="#DCC4A7"/><circle cx="435" cy="190" r="13" fill="#FBF4EC"/><circle cx="435" cy="190" r="6" fill="#DCC4A7"/><circle cx="330" cy="225" r="13" fill="#FBF4EC"/><circle cx="330" cy="225" r="6" fill="#DCC4A7"/><circle cx="270" cy="300" r="13" fill="#FBF4EC"/><circle cx="270" cy="300" r="6" fill="#DCC4A7"/><circle cx="150" cy="345" r="13" fill="#FBF4EC"/><circle cx="150" cy="345" r="6" fill="#DCC4A7"/><circle cx="150" cy="405" r="13" fill="#FBF4EC"/><circle cx="150" cy="405" r="6" fill="#DCC4A7"/></svg>